<svg id="Layer_1" data-name="Layer 1" xmlns="http://www.w3.org/2000/svg" xmlns:xlink="http://www.w3.org/1999/xlink" viewBox="0 0 6049.53 1400"><defs><style>.cls-1{fill:none;}.cls-2{fill:url(#radial-gradient);}.cls-3,.cls-4{opacity:0.5;}.cls-3{fill:url(#linear-gradient);}.cls-4{fill:url(#linear-gradient-2);}</style><radialGradient id="radial-gradient" cx="5222.36" cy="549.18" r="786.99" gradientUnits="userSpaceOnUse"><stop offset="0.36" stop-color="#ff6d41"/><stop offset="1" stop-color="#fa297f"/></radialGradient><linearGradient id="linear-gradient" x1="4831.55" y1="1284.23" x2="5312.38" y2="751.99" gradientUnits="userSpaceOnUse"><stop offset="0.03" stop-color="#652cb4" stop-opacity="0"/><stop offset="0.07" stop-color="#652cb4" stop-opacity="0.07"/><stop offset="0.14" stop-color="#652cb4" stop-opacity="0.25"/><stop offset="0.23" stop-color="#652cb4" stop-opacity="0.55"/><stop offset="0.35" stop-color="#652cb4" stop-opacity="0.95"/><stop offset="0.36" stop-color="#652cb4"/><stop offset="0.67" stop-color="#652cb4"/><stop offset="1" stop-color="#652cb4" stop-opacity="0"/></linearGradient><linearGradient id="linear-gradient-2" x1="5439.94" y1="636.86" x2="5851.21" y2="183.25" gradientUnits="userSpaceOnUse"><stop offset="0.03" stop-color="#652cb4" stop-opacity="0"/><stop offset="0.07" stop-color="#652cb4" stop-opacity="0.07"/><stop offset="0.14" stop-color="#652cb4" stop-opacity="0.25"/><stop offset="0.24" stop-color="#652cb4" stop-opacity="0.55"/><stop offset="0.37" stop-color="#652cb4" stop-opacity="0.95"/><stop offset="0.38" stop-color="#652cb4"/><stop offset="0.7" stop-color="#652cb4"/><stop offset="1" stop-color="#652cb4" stop-opacity="0"/></linearGradient></defs><title>Artboard 1</title><path d="M66.13,96.44H441.49l641.23,700.32c40,48.65,74.73,90.36,97.32,139h7V96.44h318V1330.25H1155.71L490.15,623c-33-38.23-79.94-100.79-99.06-140.76h-6.95v848h-318Z"/><path d="M1985.86,371.42V602.13h865.41V867.4H1985.86v462.85h-351V96.44h1246v275Z"/><path class="cls-1" d="M4363.84,371.42H3851.2v961h-351v-961H2987.54V98.59h1376.3Z"/><path d="M4362,369.27H3849.39v961h-351v-961l-512.64,2.15v-275H4362Z"/><polygon class="cls-2" points="5905.51 96.28 5549.85 96.28 5220.43 446.25 5441.4 671.67 5905.51 176.44 5905.51 96.28"/><polygon class="cls-2" points="5308.22 704.33 5246.55 704.33 4957.92 704.33 4957.45 704.85 4466.4 1243.83 4466.4 1333.72 4834.05 1333.72 5355.28 751.9 5308.22 704.33"/><path d="M4606.36,321.78l116.9,120.27c22.16-15.79,37.92-31.28,54.92-48,32.39-31.92,69.1-68.09,152.44-106.3,40.36-18.5,73.18-29,101.49-35.36l-122-125c-22.51,5.2-48.07,13.69-80.79,28.71-68.4,31.4-95,57.64-125.76,88C4679.43,267.94,4652.88,294.14,4606.36,321.78Z"/><path d="M5538.65,981c-43.4,3.56-80.87,6.64-149.85,38.15-29,13.27-50.56,25.61-68.12,37.73L5438,1177.5c15.18-8.81,32.41-17.76,52.29-26.84,83.84-38.26,135.44-42.49,181-46.24,43.47-3.57,81-6.65,150.13-38.19,1.22-.56,2.33-1.1,3.52-1.65L5704.55,941.3C5629.47,973.48,5581.37,977.44,5538.65,981Z"/><path d="M4843.14,459.94c-15.66,15.43-32.36,31.86-54.83,49L4901.6,625.52c5.44-5.15,10.77-10.38,16.22-15.75,32.46-31.92,69.25-68.09,152.71-106.31,73.1-33.48,121.63-40.87,163-44.69L5112.11,334.33c-40.68,3.39-77.62,7.58-142.92,37.52C4900.64,403.27,4874,429.53,4843.14,459.94Z"/><path d="M5441.46,671.67,5315.73,543c-21.06,3.58-39.7,5.14-57.37,6.58-43.26,3.55-80.61,6.61-149.3,38.07-65.54,30-92.87,55.32-122.12,84l-29.5,33.25h0l.47-.52h288.62c64-23.5,109.63-24.4,148.16-27.56C5410.47,675.48,5425.46,674.23,5441.46,671.67Z"/><polygon class="cls-3" points="4834.06 1242.05 4834.06 1333.72 5355.28 751.9 5308.22 704.34 4834.06 1242.05"/><path d="M5996.36,1240.27l-103.52-106.06c-10.17,5.36-21.13,10.76-33.07,16.21-83.84,38.26-135.44,42.5-181,46.24-43.47,3.57-81,6.65-150.13,38.2-8.56,3.9-16.46,7.72-23.81,11.49l83.23,85.64h408.27Z"/><path d="M5512.77,744.83c-47.16,14.86-82.25,17.79-114.27,20.41-20.77,1.71-40.21,3.33-62.37,8L5196.43,929l59.08,60.8c23.62-17.61,53.53-36,94.83-54.84,83.72-38.25,135.26-42.48,180.74-46.22,32.5-2.66,61.68-5.07,103.26-19.34Z"/><polygon class="cls-4" points="5905.51 96.64 5399.42 628.45 5441.47 671.61 5905.51 176.47 5905.51 96.64"/><path d="M4465.34,98.19V176.7l74.27,76.41c49.18-25.81,72.56-48.81,98.94-74.85,24.83-24.52,52.23-51.55,101.31-80.07Z"/></svg>