<svg xmlns="http://www.w3.org/2000/svg" viewBox="0 0 6049.53 1400"><defs><linearGradient id="linear-gradient" x1="4831.55" y1="1284.23" x2="5312.38" y2="751.99" gradientUnits="userSpaceOnUse"><stop offset=".03" stop-color="#652cb4" stop-opacity="0"/><stop offset=".07" stop-color="#652cb4" stop-opacity=".07"/><stop offset=".14" stop-color="#652cb4" stop-opacity=".25"/><stop offset=".23" stop-color="#652cb4" stop-opacity=".55"/><stop offset=".35" stop-color="#652cb4" stop-opacity=".95"/><stop offset=".36" stop-color="#652cb4"/><stop offset=".67" stop-color="#652cb4"/><stop offset="1" stop-color="#652cb4" stop-opacity="0"/></linearGradient><linearGradient id="linear-gradient-2" x1="5439.94" y1="636.86" x2="5851.21" y2="183.25" gradientUnits="userSpaceOnUse"><stop offset=".03" stop-color="#652cb4" stop-opacity="0"/><stop offset=".07" stop-color="#652cb4" stop-opacity=".07"/><stop offset=".14" stop-color="#652cb4" stop-opacity=".25"/><stop offset=".24" stop-color="#652cb4" stop-opacity=".55"/><stop offset=".37" stop-color="#652cb4" stop-opacity=".95"/><stop offset=".38" stop-color="#652cb4"/><stop offset=".7" stop-color="#652cb4"/><stop offset="1" stop-color="#652cb4" stop-opacity="0"/></linearGradient><radialGradient id="radial-gradient" cx="5222.36" cy="549.18" r="786.99" gradientUnits="userSpaceOnUse"><stop offset=".36" stop-color="#ff6d41"/><stop offset="1" stop-color="#fa297f"/></radialGradient><style>.cls-1{fill:#fff}.cls-2{fill:url(#radial-gradient)}</style></defs><path class="cls-1" d="M66.13 96.44h375.36l641.23 700.32c40 48.65 74.73 90.36 97.32 139h7V96.44h318v1233.81h-349.33L490.15 623c-33-38.23-79.94-100.79-99.06-140.76h-6.95v848h-318zM1985.86 371.42v230.71h865.41V867.4h-865.41v462.85h-351V96.44h1246v275zM4363.84 371.42H3851.2v961h-351v-961h-512.66V98.59h1376.3z"/><path class="cls-1" d="M4362 369.27h-512.61v961h-351v-961l-512.64 2.15v-275H4362z"/><path class="cls-2" d="M5905.51 96.28h-355.66l-329.42 349.97 220.97 225.42 464.11-495.23V96.28zM5308.22 704.33h-350.3l-.47.52-491.05 538.98v89.89h367.65l521.23-581.82-47.06-47.57z"/><path fill="url(#linear-gradient)" opacity=".5" d="M4834.06 1242.05v91.67l521.22-581.82-47.06-47.56-474.16 537.71z"/><path fill="url(#linear-gradient-2)" opacity=".5" d="M5905.51 96.64l-506.09 531.81 42.05 43.16 464.04-495.14V96.64z"/><path class="cls-1" d="M4606.36 321.78l116.9 120.27c22.16-15.79 37.92-31.28 54.92-48 32.39-31.92 69.1-68.09 152.44-106.3 40.36-18.5 73.18-29 101.49-35.36l-122-125c-22.51 5.2-48.07 13.69-80.79 28.71-68.4 31.4-95 57.64-125.76 88-24.13 23.84-50.68 50.04-97.2 77.68zM5538.65 981c-43.4 3.56-80.87 6.64-149.85 38.15-29 13.27-50.56 25.61-68.12 37.73L5438 1177.5c15.18-8.81 32.41-17.76 52.29-26.84 83.84-38.26 135.44-42.49 181-46.24 43.47-3.57 81-6.65 150.13-38.19 1.22-.56 2.33-1.1 3.52-1.65L5704.55 941.3c-75.08 32.18-123.18 36.14-165.9 39.7zM4843.14 459.94c-15.66 15.43-32.36 31.86-54.83 49l113.29 116.58c5.44-5.15 10.77-10.38 16.22-15.75 32.46-31.92 69.25-68.09 152.71-106.31 73.1-33.48 121.63-40.87 163-44.69l-121.42-124.44c-40.68 3.39-77.62 7.58-142.92 37.52-68.55 31.42-95.19 57.68-126.05 88.09zM5441.46 671.67L5315.73 543c-21.06 3.58-39.7 5.14-57.37 6.58-43.26 3.55-80.61 6.61-149.3 38.07-65.54 30-92.87 55.32-122.12 84l-29.5 33.25.47-.52h288.62c64-23.5 109.63-24.4 148.16-27.56 15.78-1.34 30.77-2.59 46.77-5.15zM5996.36 1240.27l-103.52-106.06c-10.17 5.36-21.13 10.76-33.07 16.21-83.84 38.26-135.44 42.5-181 46.24-43.47 3.57-81 6.65-150.13 38.2-8.56 3.9-16.46 7.72-23.81 11.49l83.23 85.64h408.27zM5512.77 744.83c-47.16 14.86-82.25 17.79-114.27 20.41-20.77 1.71-40.21 3.33-62.37 8L5196.43 929l59.08 60.8c23.62-17.61 53.53-36 94.83-54.84 83.72-38.25 135.26-42.48 180.74-46.22 32.5-2.66 61.68-5.07 103.26-19.34zM4465.34 98.19v78.51l74.27 76.41c49.18-25.81 72.56-48.81 98.94-74.85 24.83-24.52 52.23-51.55 101.31-80.07z"/></svg>